<svg width="71" height="70" viewBox="0 0 71 70" fill="none" xmlns="http://www.w3.org/2000/svg">
<path d="M35.5 61.6959C41.9466 61.7342 48.7971 67.6131 54.2793 64.2212C59.7413 60.8419 58.1814 52.3918 60.3245 46.3369C62.2319 40.9478 67.2303 36.2085 66.1831 30.5885C65.1387 24.9827 58.9968 22.176 55.0551 18.0555C51.341 14.1728 48.5343 9.422 43.6974 7.08222C38.347 4.49402 32.1854 2.61693 26.4634 4.22435C20.7221 5.83721 16.4114 10.6466 13.1761 15.6563C10.2081 20.2519 9.99994 25.8096 9.04461 31.1963C8.05384 36.7827 6.1601 42.2793 7.47566 47.7983C8.95279 53.995 11.1567 61.1683 16.8638 63.9985C22.5874 66.8369 29.1114 61.6578 35.5 61.6959Z" fill="#CF7EEC"/>
<path d="M36.7082 23.413L42.7864 23.333C43.585 23.323 44.6289 23.8537 45.0945 24.512L48.6019 29.4738C49.07 30.1272 49.6408 30.0396 49.8812 29.2661L51.6912 23.4657C51.924 22.6922 52.7476 21.871 53.5161 21.6332L59.3165 19.8307C60.09 19.5954 60.1801 19.0196 59.5242 18.554L54.5599 15.0417C53.9015 14.5761 53.3708 13.5422 53.3883 12.7386L53.461 6.66031C53.471 5.86172 52.9553 5.58888 52.3069 6.07446L47.4378 9.70943C46.797 10.1901 45.6479 10.3703 44.8818 10.1175L39.1289 8.15986C38.3654 7.90453 37.9498 8.31502 38.2052 9.07354L40.1653 14.8289C40.4156 15.5848 40.238 16.7391 39.7648 17.3873L36.1224 22.2539C35.6368 22.9024 35.907 23.418 36.7082 23.413Z" fill="#010002"/>
<path d="M64.2206 55.9923L64.3208 55.8897L15.1312 6.71032L15.0761 6.7629C15.0685 6.76034 15.0685 6.75292 15.0611 6.75037C14.2475 5.92671 11.7516 7.08576 9.50362 9.33134C7.26057 11.5818 6.10154 14.0678 6.92008 14.8914C6.92506 14.899 6.93504 14.899 6.93759 14.9014L6.88003 14.9615L56.0645 64.1485L56.162 64.0433C57.1385 64.5591 59.424 63.43 61.5093 61.3397C63.6072 59.2468 64.7312 56.9637 64.2206 55.9923ZM20.8941 20.7269C19.705 21.9161 18.4507 22.7872 17.4093 23.2378L10.1345 15.9204C11.1708 15.4673 12.4101 14.5986 13.5916 13.4219C14.7657 12.2428 15.6244 11.0161 16.0825 9.98473L23.375 17.3196C22.9194 18.3486 22.0556 19.5628 20.8941 20.7269Z" fill="#010002"/>
</svg>
