<svg width="71" height="87" viewBox="0 0 71 87" fill="none" xmlns="http://www.w3.org/2000/svg">
<rect x="0.513062" y="0.499916" width="69.9738" height="86.0002" rx="10" fill="black"/>
<path d="M21.764 35.6745H16.972C16.0596 35.6745 15.5131 36.2679 15.5131 37.1568V49.5452C15.5131 50.6182 16.2192 51.3255 17.1996 51.3255C18.1589 51.3255 18.8649 50.6183 18.8649 49.5452V45.7817C18.8649 45.6901 18.9117 45.6445 19.0033 45.6445H21.764C25.1394 45.6445 27.1706 43.5909 27.1706 40.6706C27.1708 37.7046 25.1629 35.6745 21.764 35.6745ZM21.5578 42.7465H19.0033C18.9117 42.7465 18.8649 42.7008 18.8649 42.6104V38.7085C18.8649 38.617 18.9117 38.5715 19.0033 38.5715H21.5578C22.972 38.5715 23.8164 39.4158 23.8164 40.6707C23.8166 41.9255 22.972 42.7465 21.5578 42.7465Z" fill="white"/>
<path d="M35.3028 35.7431H31.6296C30.7172 35.7431 30.1707 36.3365 30.1707 37.2254V49.7967C30.1707 50.687 30.7171 51.2569 31.6296 51.2569H35.3028C38.6101 51.2569 40.6648 50.2072 41.4857 47.6751C41.7813 46.7849 41.9431 45.7131 41.9431 43.4999C41.9431 41.2869 41.7812 40.215 41.4857 39.3249C40.6647 36.7928 38.6101 35.7431 35.3028 35.7431ZM38.2699 46.5118C37.8806 47.7431 36.7641 48.2685 35.2112 48.2685H33.6609C33.5693 48.2685 33.5225 48.2229 33.5225 48.1315V38.8687C33.5225 38.7771 33.5693 38.7314 33.6609 38.7314H35.2112C36.7641 38.7314 37.8806 39.2569 38.2699 40.4884C38.4295 41.0138 38.5421 41.9262 38.5421 43.5001C38.5421 45.074 38.4293 45.9864 38.2699 46.5118Z" fill="white"/>
<path d="M53.9313 35.6745H46.4043C45.4919 35.6745 44.943 36.2679 44.943 37.1568V49.5452C44.943 50.6182 45.6515 51.3255 46.6319 51.3255C47.5888 51.3255 48.2972 50.6183 48.2972 49.5452V45.1191C48.2972 45.0287 48.3417 44.983 48.4332 44.983H52.8148C53.7953 44.983 54.3652 44.3897 54.3652 43.5452C54.3652 42.7006 53.7953 42.1085 52.8148 42.1085H48.4332C48.3417 42.1085 48.2972 42.0629 48.2972 41.9713V38.7085C48.2972 38.617 48.3417 38.5715 48.4332 38.5715H53.9313C54.8673 38.5715 55.4842 37.9557 55.4842 37.1348C55.484 36.2901 54.8671 35.6745 53.9313 35.6745Z" fill="white"/>
</svg>
