<svg width="71" height="70" viewBox="0 0 71 70" fill="none" xmlns="http://www.w3.org/2000/svg">
<g clip-path="url(#clip0_1_121)">
<path d="M35.5 61.9813C40.1192 62.3059 42.8794 56.707 46.1264 53.4055C48.6678 50.8217 49.9379 47.4075 52.4257 44.772C55.8636 41.1299 63.5222 40.0084 63.5 35C63.4779 29.9808 55.2825 29.3437 52.3396 25.2777C49.8351 21.8173 50.8604 16.5829 47.9244 13.4803C44.7087 10.0823 40.0656 8.50416 35.5 7.48318C30.1677 6.29072 23.852 3.94337 19.3917 7.0996C14.847 10.3156 17.1602 17.9948 14.0859 22.6366C10.7029 27.7443 1.73631 28.9291 0.912672 35C0.122878 40.8214 5.59842 46.1464 10.4461 49.4649C14.7722 52.4265 21.0121 49.6272 25.7022 51.9703C29.9516 54.0932 30.7615 61.6483 35.5 61.9813Z" fill="#52D4FF"/>
<path d="M25.7778 15.5555V54.4445M47.6528 35V54.4445M20.9166 54.4445H30.6389M42.7916 54.4445H52.5139M37.9305 22.8472V15.5555H13.625V22.8472M57.375 39.8611V35H37.9305V39.8611" stroke="black" stroke-width="6.91667" stroke-linecap="round" stroke-linejoin="round"/>
</g>
<defs>
<clipPath id="clip0_1_121">
<rect width="70" height="70" fill="white" transform="translate(0.5)"/>
</clipPath>
</defs>
</svg>
