<svg width="71" height="70" viewBox="0 0 71 70" fill="none" xmlns="http://www.w3.org/2000/svg">
<path d="M35.5 58.6239C39.4863 58.1023 42.4971 55.0722 46.237 53.5969C50.7537 51.8153 56.0029 52.0497 59.8091 49.0349C64.3756 45.4178 69.6455 40.8251 69.7151 35C69.7846 29.1855 64.2156 24.9244 60.1466 20.7703C56.7656 17.3185 52.1539 15.7837 48.1885 13.0228C43.7918 9.96176 40.8073 4.34208 35.5 3.61067C30.1568 2.87431 25.1147 6.245 20.6178 9.22326C16.2978 12.0843 12.1278 15.5799 10.1787 20.3807C8.31371 24.9742 10.5169 30.0559 10.1523 35C9.75139 40.4363 5.14189 46.2335 7.9264 50.9197C10.7204 55.6217 17.7406 55.1643 23.0084 56.6361C27.1395 57.7904 31.2469 59.1803 35.5 58.6239Z" fill="#EC7E7E"/>
<path fill-rule="evenodd" clip-rule="evenodd" d="M60.7513 12.2199L58.2235 9.69403C55.4306 6.90106 49.7828 6.57578 46.9899 9.36868L34.6161 21.7424C32.7495 23.6091 33.0164 26.8352 33.6457 29.2162L50.5253 12.904C51.9217 11.5076 54.4318 13.2753 55.8283 14.6718C57.2247 16.0682 58.9924 18.5783 57.5959 19.9748L41.2291 36.7995C43.6101 37.4271 46.8909 37.7505 48.7576 35.8839L61.1313 23.5101C63.9242 20.719 63.5442 15.0128 60.7513 12.2199ZM20.4747 57.096C19.0783 58.4924 16.5682 56.7248 15.1717 55.3283C13.7753 53.9319 12.0076 51.4218 13.4041 50.0253L29.7161 33.1457C27.3351 32.5164 24.1091 32.2495 22.2424 34.1162L9.86868 46.4899C7.07576 49.2828 7.40102 54.9306 10.194 57.7218L12.7217 60.2512C15.5129 63.0442 21.2172 63.4242 24.0101 60.6313L36.3839 48.2576C38.2505 46.3909 37.9288 43.1102 37.2995 40.7291L20.4747 57.096ZM41.1601 29.3116C40.4619 28.6152 39.3306 28.6152 38.6324 29.3116L29.7851 38.1589C29.0869 38.8589 29.0869 39.9885 29.7851 40.6885C30.4833 41.3849 31.6146 41.3849 32.3129 40.6885L41.1601 31.8412C41.8583 31.1412 41.8583 30.0116 41.1601 29.3116Z" fill="black"/>
</svg>
