<svg width="71" height="71" viewBox="0 0 71 71" fill="none" xmlns="http://www.w3.org/2000/svg">
<path fill-rule="evenodd" clip-rule="evenodd" d="M29.6667 3.41667C28.8931 3.41667 28.1513 3.72397 27.6043 4.27093L10.1043 21.7709C9.5573 22.3179 9.25 23.0598 9.25 23.8333V58.8333C9.25 63.666 13.1675 67.5833 18 67.5833H32.5833C34.1942 67.5833 35.5 66.2775 35.5 64.6667C35.5 63.0558 34.1942 61.75 32.5833 61.75H18C16.3892 61.75 15.0833 60.4442 15.0833 58.8333V26.75H29.6667C31.2775 26.75 32.5833 25.4442 32.5833 23.8333V9.25H53C54.6109 9.25 55.9167 10.5559 55.9167 12.1667V26.75C55.9167 28.3608 57.2225 29.6667 58.8333 29.6667C60.4442 29.6667 61.75 28.3608 61.75 26.75V12.1667C61.75 7.33419 57.8326 3.41667 53 3.41667H29.6667ZM26.75 20.9167H19.2081L26.75 13.3748V20.9167ZM44.25 35.5C42.6391 35.5 41.3333 36.8058 41.3333 38.4167V50.0833V58.8333C41.3333 60.4442 42.6391 61.75 44.25 61.75C45.8609 61.75 47.1667 60.4442 47.1667 58.8333V53H55.9167C60.7493 53 64.6667 49.0826 64.6667 44.25C64.6667 39.4174 60.7493 35.5 55.9167 35.5H44.25ZM55.9167 47.1667H47.1667V41.3333H55.9167C57.5275 41.3333 58.8333 42.6391 58.8333 44.25C58.8333 45.8609 57.5275 47.1667 55.9167 47.1667Z" fill="black"/>
</svg>
